<mxfile host="app.diagrams.net" agent="Mozilla/5.0 (Windows NT 10.0; Win64; x64) AppleWebKit/537.36 (KHTML, like Gecko) Chrome/141.0.0.0 Safari/537.36 Edg/141.0.0.0" version="28.2.7">
  <diagram id="C5RBs43oDa-KdzZeNtuy" name="Page-1">
    <mxGraphModel dx="488" dy="550" grid="1" gridSize="10" guides="1" tooltips="1" connect="1" arrows="1" fold="1" page="1" pageScale="1" pageWidth="827" pageHeight="1169" math="0" shadow="0">
      <root>
        <mxCell id="WIyWlLk6GJQsqaUBKTNV-0" />
        <mxCell id="WIyWlLk6GJQsqaUBKTNV-1" parent="WIyWlLk6GJQsqaUBKTNV-0" />
        <mxCell id="S_FS7I3CNLD-lgZ6W5pM-0" value="Usuario Administrador" style="swimlane;fontStyle=2;align=center;verticalAlign=top;childLayout=stackLayout;horizontal=1;startSize=26;horizontalStack=0;resizeParent=1;resizeLast=0;collapsible=1;marginBottom=0;rounded=0;shadow=0;strokeWidth=1;" vertex="1" parent="WIyWlLk6GJQsqaUBKTNV-1">
          <mxGeometry x="820" y="450" width="220" height="158" as="geometry">
            <mxRectangle x="230" y="140" width="160" height="26" as="alternateBounds" />
          </mxGeometry>
        </mxCell>
        <mxCell id="S_FS7I3CNLD-lgZ6W5pM-1" value="+ email: str" style="text;strokeColor=none;fillColor=none;align=left;verticalAlign=top;spacingLeft=4;spacingRight=4;overflow=hidden;rotatable=0;points=[[0,0.5],[1,0.5]];portConstraint=eastwest;whiteSpace=wrap;html=1;" vertex="1" parent="S_FS7I3CNLD-lgZ6W5pM-0">
          <mxGeometry y="26" width="220" height="26" as="geometry" />
        </mxCell>
        <mxCell id="S_FS7I3CNLD-lgZ6W5pM-2" value="+ pass: str" style="text;strokeColor=none;fillColor=none;align=left;verticalAlign=top;spacingLeft=4;spacingRight=4;overflow=hidden;rotatable=0;points=[[0,0.5],[1,0.5]];portConstraint=eastwest;whiteSpace=wrap;html=1;" vertex="1" parent="S_FS7I3CNLD-lgZ6W5pM-0">
          <mxGeometry y="52" width="220" height="26" as="geometry" />
        </mxCell>
        <mxCell id="S_FS7I3CNLD-lgZ6W5pM-3" value="" style="line;html=1;strokeWidth=1;align=left;verticalAlign=middle;spacingTop=-1;spacingLeft=3;spacingRight=3;rotatable=0;labelPosition=right;points=[];portConstraint=eastwest;" vertex="1" parent="S_FS7I3CNLD-lgZ6W5pM-0">
          <mxGeometry y="78" width="220" height="8" as="geometry" />
        </mxCell>
        <mxCell id="S_FS7I3CNLD-lgZ6W5pM-4" value="+ eliminar(email, pass): Response" style="text;strokeColor=none;fillColor=none;align=left;verticalAlign=top;spacingLeft=4;spacingRight=4;overflow=hidden;rotatable=0;points=[[0,0.5],[1,0.5]];portConstraint=eastwest;whiteSpace=wrap;html=1;" vertex="1" parent="S_FS7I3CNLD-lgZ6W5pM-0">
          <mxGeometry y="86" width="220" height="24" as="geometry" />
        </mxCell>
        <mxCell id="S_FS7I3CNLD-lgZ6W5pM-34" value="+ registrar(email, pass): Response" style="text;strokeColor=none;fillColor=none;align=left;verticalAlign=top;spacingLeft=4;spacingRight=4;overflow=hidden;rotatable=0;points=[[0,0.5],[1,0.5]];portConstraint=eastwest;whiteSpace=wrap;html=1;" vertex="1" parent="S_FS7I3CNLD-lgZ6W5pM-0">
          <mxGeometry y="110" width="220" height="24" as="geometry" />
        </mxCell>
        <mxCell id="S_FS7I3CNLD-lgZ6W5pM-40" value="+ bloquear(email): Response" style="text;strokeColor=none;fillColor=none;align=left;verticalAlign=top;spacingLeft=4;spacingRight=4;overflow=hidden;rotatable=0;points=[[0,0.5],[1,0.5]];portConstraint=eastwest;whiteSpace=wrap;html=1;" vertex="1" parent="S_FS7I3CNLD-lgZ6W5pM-0">
          <mxGeometry y="134" width="220" height="24" as="geometry" />
        </mxCell>
        <mxCell id="S_FS7I3CNLD-lgZ6W5pM-7" value="ICRUD&amp;lt;E&amp;gt;" style="swimlane;fontStyle=0;childLayout=stackLayout;horizontal=1;startSize=26;fillColor=none;horizontalStack=0;resizeParent=1;resizeParentMax=0;resizeLast=0;collapsible=1;marginBottom=0;whiteSpace=wrap;html=1;" vertex="1" parent="WIyWlLk6GJQsqaUBKTNV-1">
          <mxGeometry x="330" y="130" width="220" height="130" as="geometry" />
        </mxCell>
        <mxCell id="S_FS7I3CNLD-lgZ6W5pM-8" value="add(input): Response" style="label;fontStyle=0;strokeColor=none;fillColor=none;align=left;verticalAlign=top;overflow=hidden;spacingLeft=28;spacingRight=4;rotatable=0;points=[[0,0.5],[1,0.5]];portConstraint=eastwest;imageWidth=16;imageHeight=16;whiteSpace=wrap;html=1;image=img/clipart/Gear_128x128.png" vertex="1" parent="S_FS7I3CNLD-lgZ6W5pM-7">
          <mxGeometry y="26" width="220" height="26" as="geometry" />
        </mxCell>
        <mxCell id="S_FS7I3CNLD-lgZ6W5pM-9" value="update(key, input): Response" style="label;fontStyle=0;strokeColor=none;fillColor=none;align=left;verticalAlign=top;overflow=hidden;spacingLeft=28;spacingRight=4;rotatable=0;points=[[0,0.5],[1,0.5]];portConstraint=eastwest;imageWidth=16;imageHeight=16;whiteSpace=wrap;html=1;image=img/clipart/Gear_128x128.png" vertex="1" parent="S_FS7I3CNLD-lgZ6W5pM-7">
          <mxGeometry y="52" width="220" height="26" as="geometry" />
        </mxCell>
        <mxCell id="S_FS7I3CNLD-lgZ6W5pM-10" value="delete(key): Response" style="label;fontStyle=0;strokeColor=none;fillColor=none;align=left;verticalAlign=top;overflow=hidden;spacingLeft=28;spacingRight=4;rotatable=0;points=[[0,0.5],[1,0.5]];portConstraint=eastwest;imageWidth=16;imageHeight=16;whiteSpace=wrap;html=1;image=img/clipart/Gear_128x128.png" vertex="1" parent="S_FS7I3CNLD-lgZ6W5pM-7">
          <mxGeometry y="78" width="220" height="26" as="geometry" />
        </mxCell>
        <mxCell id="S_FS7I3CNLD-lgZ6W5pM-11" value="query(key): Response" style="label;fontStyle=0;strokeColor=none;fillColor=none;align=left;verticalAlign=top;overflow=hidden;spacingLeft=28;spacingRight=4;rotatable=0;points=[[0,0.5],[1,0.5]];portConstraint=eastwest;imageWidth=16;imageHeight=16;whiteSpace=wrap;html=1;image=img/clipart/Gear_128x128.png" vertex="1" parent="S_FS7I3CNLD-lgZ6W5pM-7">
          <mxGeometry y="104" width="220" height="26" as="geometry" />
        </mxCell>
        <mxCell id="S_FS7I3CNLD-lgZ6W5pM-12" value="«interface»&lt;br&gt;&lt;b&gt;input&lt;/b&gt;" style="html=1;whiteSpace=wrap;" vertex="1" parent="WIyWlLk6GJQsqaUBKTNV-1">
          <mxGeometry x="300" y="310" width="110" height="50" as="geometry" />
        </mxCell>
        <mxCell id="S_FS7I3CNLD-lgZ6W5pM-13" value="Use" style="endArrow=open;endSize=12;dashed=1;html=1;rounded=0;exitX=0.494;exitY=1.108;exitDx=0;exitDy=0;exitPerimeter=0;" edge="1" parent="WIyWlLk6GJQsqaUBKTNV-1" source="S_FS7I3CNLD-lgZ6W5pM-11" target="S_FS7I3CNLD-lgZ6W5pM-12">
          <mxGeometry width="160" relative="1" as="geometry">
            <mxPoint x="480" y="360" as="sourcePoint" />
            <mxPoint x="400" y="350" as="targetPoint" />
          </mxGeometry>
        </mxCell>
        <mxCell id="S_FS7I3CNLD-lgZ6W5pM-14" value="Usuarioinput" style="swimlane;fontStyle=2;align=center;verticalAlign=top;childLayout=stackLayout;horizontal=1;startSize=26;horizontalStack=0;resizeParent=1;resizeLast=0;collapsible=1;marginBottom=0;rounded=0;shadow=0;strokeWidth=1;" vertex="1" parent="WIyWlLk6GJQsqaUBKTNV-1">
          <mxGeometry x="290" y="420" width="130" height="78" as="geometry">
            <mxRectangle x="230" y="140" width="160" height="26" as="alternateBounds" />
          </mxGeometry>
        </mxCell>
        <mxCell id="S_FS7I3CNLD-lgZ6W5pM-15" value="+ email: str" style="text;strokeColor=none;fillColor=none;align=left;verticalAlign=top;spacingLeft=4;spacingRight=4;overflow=hidden;rotatable=0;points=[[0,0.5],[1,0.5]];portConstraint=eastwest;whiteSpace=wrap;html=1;" vertex="1" parent="S_FS7I3CNLD-lgZ6W5pM-14">
          <mxGeometry y="26" width="130" height="26" as="geometry" />
        </mxCell>
        <mxCell id="S_FS7I3CNLD-lgZ6W5pM-16" value="+ pass: str" style="text;strokeColor=none;fillColor=none;align=left;verticalAlign=top;spacingLeft=4;spacingRight=4;overflow=hidden;rotatable=0;points=[[0,0.5],[1,0.5]];portConstraint=eastwest;whiteSpace=wrap;html=1;" vertex="1" parent="S_FS7I3CNLD-lgZ6W5pM-14">
          <mxGeometry y="52" width="130" height="26" as="geometry" />
        </mxCell>
        <mxCell id="S_FS7I3CNLD-lgZ6W5pM-17" value="Extends" style="endArrow=block;endSize=16;endFill=0;html=1;rounded=0;exitX=0.5;exitY=0;exitDx=0;exitDy=0;entryX=0.5;entryY=1;entryDx=0;entryDy=0;" edge="1" parent="WIyWlLk6GJQsqaUBKTNV-1" source="S_FS7I3CNLD-lgZ6W5pM-14" target="S_FS7I3CNLD-lgZ6W5pM-12">
          <mxGeometry width="160" relative="1" as="geometry">
            <mxPoint x="530" y="360" as="sourcePoint" />
            <mxPoint x="690" y="360" as="targetPoint" />
          </mxGeometry>
        </mxCell>
        <mxCell id="S_FS7I3CNLD-lgZ6W5pM-18" value="Response" style="swimlane;fontStyle=2;align=center;verticalAlign=top;childLayout=stackLayout;horizontal=1;startSize=26;horizontalStack=0;resizeParent=1;resizeLast=0;collapsible=1;marginBottom=0;rounded=0;shadow=0;strokeWidth=1;" vertex="1" parent="WIyWlLk6GJQsqaUBKTNV-1">
          <mxGeometry x="460" y="310" width="130" height="78" as="geometry">
            <mxRectangle x="230" y="140" width="160" height="26" as="alternateBounds" />
          </mxGeometry>
        </mxCell>
        <mxCell id="S_FS7I3CNLD-lgZ6W5pM-19" value="+ status: HtttpCde" style="text;strokeColor=none;fillColor=none;align=left;verticalAlign=top;spacingLeft=4;spacingRight=4;overflow=hidden;rotatable=0;points=[[0,0.5],[1,0.5]];portConstraint=eastwest;whiteSpace=wrap;html=1;" vertex="1" parent="S_FS7I3CNLD-lgZ6W5pM-18">
          <mxGeometry y="26" width="130" height="26" as="geometry" />
        </mxCell>
        <mxCell id="S_FS7I3CNLD-lgZ6W5pM-20" value="+ body: Object" style="text;strokeColor=none;fillColor=none;align=left;verticalAlign=top;spacingLeft=4;spacingRight=4;overflow=hidden;rotatable=0;points=[[0,0.5],[1,0.5]];portConstraint=eastwest;whiteSpace=wrap;html=1;" vertex="1" parent="S_FS7I3CNLD-lgZ6W5pM-18">
          <mxGeometry y="52" width="130" height="26" as="geometry" />
        </mxCell>
        <mxCell id="S_FS7I3CNLD-lgZ6W5pM-21" value="Use" style="endArrow=open;endSize=12;dashed=1;html=1;rounded=0;entryX=0.5;entryY=0;entryDx=0;entryDy=0;exitX=0.487;exitY=1.077;exitDx=0;exitDy=0;exitPerimeter=0;" edge="1" parent="WIyWlLk6GJQsqaUBKTNV-1" source="S_FS7I3CNLD-lgZ6W5pM-11" target="S_FS7I3CNLD-lgZ6W5pM-18">
          <mxGeometry width="160" relative="1" as="geometry">
            <mxPoint x="440" y="270" as="sourcePoint" />
            <mxPoint x="420" y="317" as="targetPoint" />
          </mxGeometry>
        </mxCell>
        <mxCell id="S_FS7I3CNLD-lgZ6W5pM-22" value="HttpCode" style="html=1;whiteSpace=wrap;" vertex="1" parent="WIyWlLk6GJQsqaUBKTNV-1">
          <mxGeometry x="470" y="434" width="110" height="50" as="geometry" />
        </mxCell>
        <mxCell id="S_FS7I3CNLD-lgZ6W5pM-23" value="Use" style="endArrow=open;endSize=12;dashed=1;html=1;rounded=0;exitX=0.477;exitY=0.985;exitDx=0;exitDy=0;exitPerimeter=0;" edge="1" parent="WIyWlLk6GJQsqaUBKTNV-1" source="S_FS7I3CNLD-lgZ6W5pM-20" target="S_FS7I3CNLD-lgZ6W5pM-22">
          <mxGeometry width="160" relative="1" as="geometry">
            <mxPoint x="755" y="390" as="sourcePoint" />
            <mxPoint x="700" y="437" as="targetPoint" />
          </mxGeometry>
        </mxCell>
        <mxCell id="S_FS7I3CNLD-lgZ6W5pM-24" value="«interface»&lt;br&gt;&lt;b&gt;ICRUD&lt;/b&gt;" style="html=1;whiteSpace=wrap;" vertex="1" parent="WIyWlLk6GJQsqaUBKTNV-1">
          <mxGeometry x="900" y="234" width="120" height="50" as="geometry" />
        </mxCell>
        <mxCell id="S_FS7I3CNLD-lgZ6W5pM-27" value="Logger&lt;A&gt;" style="swimlane;fontStyle=2;align=center;verticalAlign=top;childLayout=stackLayout;horizontal=1;startSize=26;horizontalStack=0;resizeParent=1;resizeLast=0;collapsible=1;marginBottom=0;rounded=0;shadow=0;strokeWidth=1;" vertex="1" parent="WIyWlLk6GJQsqaUBKTNV-1">
          <mxGeometry x="660" y="130" width="130" height="104" as="geometry">
            <mxRectangle x="230" y="140" width="160" height="26" as="alternateBounds" />
          </mxGeometry>
        </mxCell>
        <mxCell id="S_FS7I3CNLD-lgZ6W5pM-28" value="+ fecha: timestamp" style="text;strokeColor=none;fillColor=none;align=left;verticalAlign=top;spacingLeft=4;spacingRight=4;overflow=hidden;rotatable=0;points=[[0,0.5],[1,0.5]];portConstraint=eastwest;whiteSpace=wrap;html=1;" vertex="1" parent="S_FS7I3CNLD-lgZ6W5pM-27">
          <mxGeometry y="26" width="130" height="26" as="geometry" />
        </mxCell>
        <mxCell id="S_FS7I3CNLD-lgZ6W5pM-29" value="+ entity: A" style="text;strokeColor=none;fillColor=none;align=left;verticalAlign=top;spacingLeft=4;spacingRight=4;overflow=hidden;rotatable=0;points=[[0,0.5],[1,0.5]];portConstraint=eastwest;whiteSpace=wrap;html=1;" vertex="1" parent="S_FS7I3CNLD-lgZ6W5pM-27">
          <mxGeometry y="52" width="130" height="26" as="geometry" />
        </mxCell>
        <mxCell id="S_FS7I3CNLD-lgZ6W5pM-30" value="+ content: Object" style="text;strokeColor=none;fillColor=none;align=left;verticalAlign=top;spacingLeft=4;spacingRight=4;overflow=hidden;rotatable=0;points=[[0,0.5],[1,0.5]];portConstraint=eastwest;whiteSpace=wrap;html=1;" vertex="1" parent="S_FS7I3CNLD-lgZ6W5pM-27">
          <mxGeometry y="78" width="130" height="26" as="geometry" />
        </mxCell>
        <mxCell id="S_FS7I3CNLD-lgZ6W5pM-31" value="Extends" style="endArrow=block;endSize=16;endFill=0;html=1;rounded=0;exitX=0;exitY=0.5;exitDx=0;exitDy=0;entryX=1;entryY=0.5;entryDx=0;entryDy=0;" edge="1" parent="WIyWlLk6GJQsqaUBKTNV-1" source="S_FS7I3CNLD-lgZ6W5pM-29" target="S_FS7I3CNLD-lgZ6W5pM-9">
          <mxGeometry width="160" relative="1" as="geometry">
            <mxPoint x="610" y="374" as="sourcePoint" />
            <mxPoint x="685" y="260" as="targetPoint" />
          </mxGeometry>
        </mxCell>
        <mxCell id="S_FS7I3CNLD-lgZ6W5pM-32" value="&lt;font style=&quot;font-size: 14px;&quot;&gt;Supuesto 4:&amp;nbsp;&lt;/font&gt;&lt;div&gt;&lt;font style=&quot;font-size: 14px;&quot;&gt;Agregar y eliminar&amp;nbsp;&lt;/font&gt;&lt;/div&gt;&lt;div&gt;&lt;span style=&quot;font-size: 14px; background-color: transparent; color: light-dark(rgb(0, 0, 0), rgb(255, 255, 255));&quot;&gt;usuarios administradores,&amp;nbsp;&lt;/span&gt;&lt;/div&gt;&lt;div&gt;&lt;div&gt;&lt;font style=&quot;font-size: 14px;&quot;&gt;bloquear y eliminar&lt;/font&gt;&lt;/div&gt;&lt;div&gt;&lt;font style=&quot;font-size: 14px;&quot;&gt;&amp;nbsp;usuarios clientes.&lt;/font&gt;&lt;/div&gt;&lt;/div&gt;" style="html=1;whiteSpace=wrap;fillColor=#dae8fc;strokeColor=#6c8ebf;" vertex="1" parent="WIyWlLk6GJQsqaUBKTNV-1">
          <mxGeometry x="570" y="570" width="220" height="90" as="geometry" />
        </mxCell>
        <mxCell id="S_FS7I3CNLD-lgZ6W5pM-33" value="200: OK&lt;div&gt;400: Not Allowed&lt;/div&gt;&lt;div&gt;423 Locked&lt;br&gt;&lt;div&gt;404: Not Found&amp;nbsp;&lt;/div&gt;&lt;/div&gt;" style="html=1;whiteSpace=wrap;dashed=1;" vertex="1" parent="WIyWlLk6GJQsqaUBKTNV-1">
          <mxGeometry x="470" y="498" width="120" height="60" as="geometry" />
        </mxCell>
        <mxCell id="S_FS7I3CNLD-lgZ6W5pM-35" value="Usuario Cliente" style="swimlane;fontStyle=2;align=center;verticalAlign=top;childLayout=stackLayout;horizontal=1;startSize=26;horizontalStack=0;resizeParent=1;resizeLast=0;collapsible=1;marginBottom=0;rounded=0;shadow=0;strokeWidth=1;" vertex="1" parent="WIyWlLk6GJQsqaUBKTNV-1">
          <mxGeometry x="640" y="450" width="130" height="80" as="geometry">
            <mxRectangle x="230" y="140" width="160" height="26" as="alternateBounds" />
          </mxGeometry>
        </mxCell>
        <mxCell id="S_FS7I3CNLD-lgZ6W5pM-36" value="+ email: str" style="text;strokeColor=none;fillColor=none;align=left;verticalAlign=top;spacingLeft=4;spacingRight=4;overflow=hidden;rotatable=0;points=[[0,0.5],[1,0.5]];portConstraint=eastwest;whiteSpace=wrap;html=1;" vertex="1" parent="S_FS7I3CNLD-lgZ6W5pM-35">
          <mxGeometry y="26" width="130" height="26" as="geometry" />
        </mxCell>
        <mxCell id="S_FS7I3CNLD-lgZ6W5pM-37" value="+ pass: str" style="text;strokeColor=none;fillColor=none;align=left;verticalAlign=top;spacingLeft=4;spacingRight=4;overflow=hidden;rotatable=0;points=[[0,0.5],[1,0.5]];portConstraint=eastwest;whiteSpace=wrap;html=1;" vertex="1" parent="S_FS7I3CNLD-lgZ6W5pM-35">
          <mxGeometry y="52" width="130" height="26" as="geometry" />
        </mxCell>
        <mxCell id="S_FS7I3CNLD-lgZ6W5pM-43" value="Usuario" style="swimlane;fontStyle=2;align=center;verticalAlign=top;childLayout=stackLayout;horizontal=1;startSize=26;horizontalStack=0;resizeParent=1;resizeLast=0;collapsible=1;marginBottom=0;rounded=0;shadow=0;strokeWidth=1;" vertex="1" parent="WIyWlLk6GJQsqaUBKTNV-1">
          <mxGeometry x="740" y="310" width="130" height="78" as="geometry">
            <mxRectangle x="230" y="140" width="160" height="26" as="alternateBounds" />
          </mxGeometry>
        </mxCell>
        <mxCell id="S_FS7I3CNLD-lgZ6W5pM-44" value="+ email: str" style="text;strokeColor=none;fillColor=none;align=left;verticalAlign=top;spacingLeft=4;spacingRight=4;overflow=hidden;rotatable=0;points=[[0,0.5],[1,0.5]];portConstraint=eastwest;whiteSpace=wrap;html=1;" vertex="1" parent="S_FS7I3CNLD-lgZ6W5pM-43">
          <mxGeometry y="26" width="130" height="26" as="geometry" />
        </mxCell>
        <mxCell id="S_FS7I3CNLD-lgZ6W5pM-45" value="+ pass: str" style="text;strokeColor=none;fillColor=none;align=left;verticalAlign=top;spacingLeft=4;spacingRight=4;overflow=hidden;rotatable=0;points=[[0,0.5],[1,0.5]];portConstraint=eastwest;whiteSpace=wrap;html=1;" vertex="1" parent="S_FS7I3CNLD-lgZ6W5pM-43">
          <mxGeometry y="52" width="130" height="26" as="geometry" />
        </mxCell>
        <mxCell id="S_FS7I3CNLD-lgZ6W5pM-46" value="Use" style="endArrow=open;endSize=12;dashed=1;html=1;rounded=0;entryX=1;entryY=0.5;entryDx=0;entryDy=0;exitX=0;exitY=0.5;exitDx=0;exitDy=0;" edge="1" parent="WIyWlLk6GJQsqaUBKTNV-1" source="S_FS7I3CNLD-lgZ6W5pM-44" target="S_FS7I3CNLD-lgZ6W5pM-19">
          <mxGeometry width="160" relative="1" as="geometry">
            <mxPoint x="740" y="445" as="sourcePoint" />
            <mxPoint x="872" y="370" as="targetPoint" />
          </mxGeometry>
        </mxCell>
        <mxCell id="S_FS7I3CNLD-lgZ6W5pM-47" value="Extends" style="endArrow=block;endSize=16;endFill=0;html=1;rounded=0;exitX=0.5;exitY=0;exitDx=0;exitDy=0;entryX=0.491;entryY=1.071;entryDx=0;entryDy=0;entryPerimeter=0;" edge="1" parent="WIyWlLk6GJQsqaUBKTNV-1" source="S_FS7I3CNLD-lgZ6W5pM-35" target="S_FS7I3CNLD-lgZ6W5pM-45">
          <mxGeometry width="160" relative="1" as="geometry">
            <mxPoint x="780" y="590" as="sourcePoint" />
            <mxPoint x="900" y="780" as="targetPoint" />
          </mxGeometry>
        </mxCell>
        <mxCell id="S_FS7I3CNLD-lgZ6W5pM-48" value="Extends" style="endArrow=block;endSize=16;endFill=0;html=1;rounded=0;exitX=0.5;exitY=0;exitDx=0;exitDy=0;" edge="1" parent="WIyWlLk6GJQsqaUBKTNV-1" source="S_FS7I3CNLD-lgZ6W5pM-0">
          <mxGeometry width="160" relative="1" as="geometry">
            <mxPoint x="1040" y="670" as="sourcePoint" />
            <mxPoint x="800" y="390" as="targetPoint" />
          </mxGeometry>
        </mxCell>
        <mxCell id="S_FS7I3CNLD-lgZ6W5pM-49" value="Extends" style="endArrow=block;endSize=16;endFill=0;html=1;rounded=0;exitX=0.5;exitY=0;exitDx=0;exitDy=0;entryX=0.5;entryY=1;entryDx=0;entryDy=0;" edge="1" parent="WIyWlLk6GJQsqaUBKTNV-1" source="S_FS7I3CNLD-lgZ6W5pM-0" target="S_FS7I3CNLD-lgZ6W5pM-24">
          <mxGeometry width="160" relative="1" as="geometry">
            <mxPoint x="1060" y="460" as="sourcePoint" />
            <mxPoint x="970" y="400" as="targetPoint" />
          </mxGeometry>
        </mxCell>
        <mxCell id="S_FS7I3CNLD-lgZ6W5pM-50" value="Use" style="endArrow=open;endSize=12;dashed=1;html=1;rounded=0;entryX=1;entryY=0.5;entryDx=0;entryDy=0;exitX=0.5;exitY=0;exitDx=0;exitDy=0;" edge="1" parent="WIyWlLk6GJQsqaUBKTNV-1" source="S_FS7I3CNLD-lgZ6W5pM-0" target="S_FS7I3CNLD-lgZ6W5pM-29">
          <mxGeometry width="160" relative="1" as="geometry">
            <mxPoint x="930" y="450" as="sourcePoint" />
            <mxPoint x="1080" y="170" as="targetPoint" />
            <Array as="points">
              <mxPoint x="930" y="400" />
              <mxPoint x="970" y="400" />
              <mxPoint x="1070" y="400" />
              <mxPoint x="1070" y="320" />
              <mxPoint x="1070" y="195" />
            </Array>
          </mxGeometry>
        </mxCell>
      </root>
    </mxGraphModel>
  </diagram>
</mxfile>
